<svg width="150" height="49" viewBox="0 0 150 49" fill="none" xmlns="http://www.w3.org/2000/svg">
<path d="M18.8765 23.3054C17.7699 23.8587 15.557 24.4118 12.7215 24.4118C6.15139 24.4118 1.20642 20.2623 1.20642 12.6203C1.20642 5.32399 6.15139 0.379028 13.3785 0.379028C16.2831 0.379028 18.116 1.00136 18.9111 1.41625L18.185 3.87142C17.0439 3.31808 15.4185 2.90296 13.4823 2.90296C8.01861 2.90296 4.38777 6.39559 4.38777 12.516C4.38777 18.2215 7.67271 21.887 13.3439 21.887C15.1767 21.887 17.0439 21.5067 18.2542 20.9187L18.8765 23.3054Z" fill="black"/>
<path d="M41.8374 12.1708C41.8374 20.1933 36.9617 24.4464 31.0138 24.4464C24.8588 24.4464 20.5362 19.6745 20.5362 12.6205C20.5362 5.22037 25.1353 0.379242 31.3597 0.379242C37.7224 0.379242 41.8374 5.25499 41.8374 12.1708ZM23.7521 12.5513C23.7521 17.5306 26.4494 21.9915 31.1867 21.9915C35.9588 21.9915 38.6558 17.5999 38.6558 12.3092C38.6558 7.67555 36.2352 2.83442 31.2211 2.83442C26.2419 2.83442 23.7521 7.4335 23.7521 12.5513Z" fill="black"/>
<path d="M65.3863 13.8308C65.2134 10.5805 65.0058 6.67296 65.0404 3.76829H64.9368C64.1414 6.50013 63.1731 9.40481 61.9975 12.6208L57.8825 23.9282H55.6002L51.8311 12.8282C50.7247 9.54302 49.7908 6.53474 49.1339 3.76851H49.0649C48.9957 6.67319 48.8228 10.5807 48.6154 14.0733L47.9931 24.0666H45.123L46.7482 0.759995H50.5867L54.5632 12.033C55.5314 14.9029 56.3266 17.4619 56.9145 19.8827H57.0184C57.6061 17.5311 58.4361 14.9723 59.4735 12.033L63.6231 0.759995H67.4614L68.9137 24.0666H65.9745L65.3863 13.8308Z" fill="black"/>
<path d="M73.5467 1.0362C74.9991 0.794377 76.9009 0.5867 79.3215 0.5867C82.2954 0.5867 84.4737 1.27825 85.8568 2.52314C87.1365 3.62959 87.8971 5.32422 87.8971 7.39889C87.8971 9.50841 87.2747 11.168 86.0988 12.3785C84.5083 14.0729 81.9146 14.9373 78.9756 14.9373C78.0764 14.9373 77.2466 14.9026 76.5548 14.7296V24.0662H73.5465L73.5467 1.0362ZM76.5553 12.2744C77.2124 12.4475 78.0422 12.5164 79.045 12.5164C82.6759 12.5164 84.889 10.7531 84.889 7.53711C84.889 4.4596 82.7107 2.97242 79.3909 2.97242C78.0768 2.97242 77.074 3.07601 76.5553 3.21447V12.2744Z" fill="black"/>
<path d="M92.8077 16.7355L90.3871 24.0664H87.2748L95.1934 0.759747H98.8243L106.778 24.0664H103.562L101.072 16.7355H92.8077ZM100.45 14.3839L98.1676 7.67531C97.6488 6.15398 97.3032 4.77063 96.9573 3.4219H96.8881C96.5422 4.80525 96.1621 6.22297 95.7124 7.6407L93.43 14.3837H100.45V14.3839Z" fill="black"/>
<path d="M110.202 24.0662V0.75951H113.487L120.956 12.5513C122.685 15.2831 124.033 17.7383 125.14 20.1243L125.209 20.0897C124.933 16.9775 124.863 14.1418 124.863 10.5112V0.759753H127.699V24.0664H124.656L117.256 12.2402C115.631 9.64685 114.074 6.98399 112.899 4.45982L112.795 4.49419C112.968 7.43349 113.037 10.2346 113.037 14.1072V24.0662H110.202Z" fill="black"/>
<path d="M137.9 24.0662V14.1765L130.535 0.75951H133.958L137.243 7.19143C138.143 8.95482 138.834 10.3728 139.56 11.9979H139.629C140.287 10.4764 141.082 8.95482 141.981 7.19143L145.335 0.75951H148.758L140.944 14.1418V24.0662H137.9Z" fill="black"/>
<path d="M0.790283 43.7113C0.837525 42.9082 0.884772 41.9162 0.884772 41.066V26.9407H1.99495V34.4758H2.04219C2.79806 33.0113 4.19147 32.1137 6.19926 32.1137C9.05739 32.1137 11.0416 34.4992 11.0416 37.9244C11.0416 41.9636 8.46686 43.9712 5.9869 43.9712C4.16808 43.9712 2.82169 43.2389 1.92409 41.6563H1.87685L1.80599 43.7113H0.790283ZM1.99495 39.3417C1.99495 39.6015 2.0422 39.885 2.08944 40.1684C2.58548 41.8928 4.04998 43.0266 5.82155 43.0266C8.41986 43.0266 9.90798 40.9007 9.90798 37.9481C9.90798 35.35 8.49072 33.0349 5.91604 33.0349C4.26257 33.0349 2.67996 34.1923 2.13668 36.082C2.06582 36.3654 1.99495 36.6723 1.99495 37.0739V39.3417Z" fill="black"/>
<path d="M22.6392 40.9479C22.6392 41.9398 22.6865 42.8374 22.7337 43.7113H21.6944L21.6235 41.7036H21.5763C21.0094 42.7429 19.7102 43.9712 17.6788 43.9712C16.238 43.9712 13.8286 43.2625 13.8286 38.9635V32.3735H14.9388V38.7509C14.9388 41.2075 15.7181 42.9791 17.9623 42.9791C19.6158 42.9791 20.8204 41.8217 21.2928 40.6879C21.4109 40.3335 21.529 39.8847 21.529 39.4359V32.3735H22.6392V40.9479Z" fill="black"/>
<path d="M25.9932 42.2232C26.6073 42.6011 27.5285 43.0027 28.5442 43.0027C30.3394 43.0027 31.1895 42.0342 31.1895 40.8534C31.1895 39.6018 30.4337 38.9401 28.8038 38.2787C26.9378 37.5701 25.9221 36.5544 25.9221 35.1846C25.9221 33.5548 27.1976 32.1139 29.418 32.1139C30.4573 32.1139 31.3313 32.421 31.9218 32.8225L31.473 33.7435C31.0951 33.4601 30.3628 33.0585 29.229 33.0585C27.7881 33.0585 27.0322 33.9797 27.0322 35.019C27.0322 36.2001 27.8354 36.7195 29.3707 37.3575C31.2132 38.0659 32.2997 38.9874 32.2997 40.7115C32.2997 42.6484 30.788 43.9475 28.4731 43.9475C27.3629 43.9475 26.3472 43.6405 25.5914 43.168L25.9932 42.2232Z" fill="black"/>
<path d="M36.7404 29.1377C36.7404 29.6573 36.3861 30.1061 35.7956 30.1061C35.2759 30.1061 34.9216 29.6573 34.9216 29.1377C34.9216 28.6178 35.3232 28.1456 35.8428 28.1456C36.3861 28.1456 36.7404 28.5944 36.7404 29.1377ZM35.2759 43.7113V32.3735H36.3861V43.7113H35.2759Z" fill="black"/>
<path d="M40.2128 35.0899C40.2128 34.0506 40.1656 33.2713 40.1183 32.3737H41.1577L41.2522 34.4285H41.2994C41.9135 33.153 43.3308 32.1139 45.1969 32.1139C46.2834 32.1139 49.1415 32.6572 49.1415 36.9087V43.7116H48.0314V37.0032C48.0314 34.9482 47.2283 33.0821 44.8898 33.0821C43.2836 33.0821 41.9374 34.2159 41.4886 35.6804C41.3941 35.9639 41.3233 36.3416 41.3233 36.6961V43.7113H40.2131V35.0899H40.2128Z" fill="black"/>
<path d="M53.039 37.9244C53.039 41.5621 55.0231 42.9791 57.3616 42.9791C59.0151 42.9791 59.8654 42.6484 60.5032 42.3413L60.7866 43.2389C60.3615 43.4751 59.2041 43.9473 57.2199 43.9473C53.9602 43.9473 51.929 41.5852 51.929 38.2549C51.929 34.4755 54.1021 32.1134 57.0309 32.1134C60.7394 32.1134 61.448 35.6091 61.448 37.239C61.448 37.546 61.448 37.735 61.4008 37.9242H53.039V37.9244ZM60.2667 37.0268C60.2904 35.444 59.629 33.0349 56.8892 33.0349C54.3854 33.0349 53.2988 35.2789 53.1098 37.0268H60.2667Z" fill="black"/>
<path d="M63.857 42.2232C64.4711 42.6011 65.3924 43.0027 66.4081 43.0027C68.2033 43.0027 69.0536 42.0342 69.0536 40.8534C69.0536 39.6018 68.2977 38.9401 66.6679 38.2787C64.8018 37.5701 63.7861 36.5544 63.7861 35.1846C63.7861 33.5548 65.0617 32.1139 67.282 32.1139C68.3214 32.1139 69.1953 32.421 69.7856 32.8225L69.3368 33.7435C68.9589 33.4601 68.2266 33.0585 67.0928 33.0585C65.652 33.0585 64.8961 33.9797 64.8961 35.019C64.8961 36.2001 65.6992 36.7195 67.2346 37.3575C69.077 38.0659 70.1636 38.9874 70.1636 40.7115C70.1636 42.6484 68.6518 43.9475 66.337 43.9475C65.2268 43.9475 64.2111 43.6405 63.4552 43.168L63.857 42.2232Z" fill="black"/>
<path d="M72.6671 42.2232C73.2812 42.6011 74.2024 43.0027 75.2181 43.0027C77.0133 43.0027 77.8637 42.0342 77.8637 40.8534C77.8637 39.6018 77.1078 38.9401 75.478 38.2787C73.6119 37.5701 72.5962 36.5544 72.5962 35.1846C72.5962 33.5548 73.8717 32.1139 76.0921 32.1139C77.1314 32.1139 78.0054 32.421 78.5959 32.8225L78.1471 33.7435C77.7692 33.4601 77.0369 33.0585 75.9031 33.0585C74.4623 33.0585 73.7064 33.9797 73.7064 35.019C73.7064 36.2001 74.5095 36.7195 76.0449 37.3575C77.8871 38.0659 78.9739 38.9874 78.9739 40.7115C78.9739 42.6484 77.4621 43.9475 75.1473 43.9475C74.0371 43.9475 73.0214 43.6405 72.2655 43.168L72.6671 42.2232Z" fill="black"/>
<path d="M88.6818 29.0904V32.3737H91.9179V33.2713H88.6818V40.6409C88.6818 42.0817 89.1306 43.0029 90.3353 43.0029C90.9256 43.0029 91.351 42.9087 91.6344 42.814L91.7759 43.688C91.3982 43.8294 90.8783 43.9475 90.1933 43.9475C89.3666 43.9475 88.6816 43.6879 88.2564 43.1444C87.7367 42.5539 87.548 41.6091 87.548 40.4516V33.2711H85.6347V32.3735H87.548V29.4445L88.6818 29.0904Z" fill="black"/>
<path d="M100.61 43.7113L100.445 42.0815H100.374C99.8307 42.9552 98.5786 43.9712 96.76 43.9712C94.4924 43.9712 93.4294 42.3649 93.4294 40.8532C93.4294 38.2313 95.7443 36.6489 100.35 36.6961V36.4127C100.35 35.2786 100.138 33.0349 97.445 33.0585C96.4529 33.0585 95.4136 33.3181 94.6107 33.9088L94.2562 33.0821C95.2719 32.3971 96.5474 32.1137 97.5631 32.1137C100.846 32.1137 101.461 34.5702 101.461 36.6014V41.0185C101.461 41.9161 101.508 42.8371 101.626 43.7113H100.61ZM100.35 37.641C97.8702 37.5699 94.6105 37.948 94.6105 40.6644C94.6105 42.2943 95.6971 43.0265 96.8779 43.0265C98.7675 43.0265 99.8305 41.8691 100.232 40.7589C100.303 40.5227 100.35 40.2867 100.35 40.0739V37.641Z" fill="black"/>
<path d="M114.263 32.3737C114.216 33.2241 114.168 34.1217 114.168 35.3025V42.0578C114.168 44.9632 113.578 46.4041 112.633 47.3017C111.594 48.2938 110.059 48.6481 108.783 48.6481C107.484 48.6481 106.043 48.3174 105.193 47.6796L105.594 46.7582C106.374 47.2781 107.484 47.703 108.948 47.703C111.334 47.703 113.058 46.4747 113.058 43.1206V41.5146H113.011C112.421 42.6718 111.098 43.7113 109.067 43.7113C106.208 43.7113 104.201 41.2313 104.201 38.1368C104.201 34.1923 106.799 32.1137 109.303 32.1137C111.547 32.1137 112.657 33.342 113.129 34.2868H113.176L113.223 32.3735H114.263V32.3737ZM113.058 36.7198C113.058 36.3182 113.011 35.9641 112.917 35.6332C112.444 34.2632 111.239 33.0349 109.397 33.0349C106.988 33.0349 105.334 35.019 105.334 38.0187C105.334 40.5697 106.681 42.7665 109.35 42.7665C110.861 42.7665 112.279 41.8453 112.846 40.2157C112.987 39.8377 113.058 39.4123 113.058 39.011V36.7198Z" fill="black"/>
<path d="M117.995 26.9407H119.105V43.7113H117.995V26.9407Z" fill="black"/>
<path d="M124.467 29.1377C124.467 29.6573 124.112 30.1061 123.522 30.1061C123.002 30.1061 122.648 29.6573 122.648 29.1377C122.648 28.6178 123.05 28.1456 123.569 28.1456C124.112 28.1456 124.467 28.5944 124.467 29.1377ZM123.002 43.7113V32.3735H124.112V43.7113H123.002Z" fill="black"/>
<path d="M127.939 35.0899C127.939 34.0506 127.892 33.2713 127.844 32.3737H128.884L128.978 34.4285H129.025C129.64 33.153 131.057 32.1139 132.923 32.1139C134.009 32.1139 136.867 32.6572 136.867 36.9087V43.7116H135.757V37.0032C135.757 34.9482 134.954 33.0821 132.616 33.0821C131.009 33.0821 129.663 34.2159 129.214 35.6804C129.12 35.9639 129.049 36.3416 129.049 36.6961V43.7113H127.939L127.939 35.0899Z" fill="black"/>
<path d="M140.765 37.9244C140.765 41.5621 142.749 42.9791 145.087 42.9791C146.741 42.9791 147.591 42.6484 148.229 42.3413L148.513 43.2389C148.088 43.4751 146.93 43.9473 144.946 43.9473C141.686 43.9473 139.655 41.5852 139.655 38.2549C139.655 34.4755 141.828 32.1134 144.757 32.1134C148.465 32.1134 149.174 35.6091 149.174 37.239C149.174 37.546 149.174 37.735 149.127 37.9242H140.765V37.9244ZM147.993 37.0268C148.017 35.444 147.355 33.0349 144.615 33.0349C142.111 33.0349 141.025 35.2789 140.836 37.0268H147.993Z" fill="black"/>
</svg>
